<svg width="22" height="18" viewBox="0 0 22 18" fill="none" xmlns="http://www.w3.org/2000/svg">
<path fill-rule="evenodd" clip-rule="evenodd" d="M11.0059 2.17969C12.4559 1.07969 14.5559 0.679688 16.5059 0.679688C17.9559 0.679688 19.4959 0.899688 20.7759 1.46969C21.5059 1.79969 21.9959 2.50969 21.9959 3.31969V14.5997C21.9959 15.9097 20.7759 16.8697 19.5159 16.5397C18.5359 16.2897 17.4959 16.1797 16.4959 16.1797C14.9359 16.1797 13.2759 16.4297 11.9359 17.0997C11.3459 17.3997 10.6659 17.3997 10.0659 17.0997C8.72586 16.4397 7.06586 16.1797 5.50586 16.1797C4.50586 16.1797 3.46586 16.2897 2.48586 16.5397C1.22586 16.8597 0.00585938 15.8997 0.00585938 14.5997V3.31969C0.00585938 2.50969 0.495859 1.79969 1.22586 1.46969C2.51586 0.899688 4.05586 0.679688 5.50586 0.679688C7.45586 0.679688 9.55586 1.07969 11.0059 2.17969ZM18.8059 14.3897C19.4259 14.4997 20.0059 14.0397 20.0059 13.4097V3.93969C20.0059 3.46969 19.6659 3.05969 19.2059 2.95969C18.3359 2.76969 17.4259 2.67969 16.5059 2.67969C14.8059 2.67969 12.3559 3.32969 11.0059 4.17969V15.6897C12.3559 14.8397 14.8059 14.1897 16.5059 14.1897C17.2759 14.1897 18.0559 14.2497 18.8059 14.3897Z" fill="white"/>
</svg>
