<svg width="11" height="12" viewBox="0 0 11 12" fill="none" xmlns="http://www.w3.org/2000/svg">
<path d="M5.24947 0.75C8.14928 0.75 10.5 3.10071 10.5 6.00052C10.5 8.89981 8.14928 11.25 5.24947 11.25C2.34966 11.2505 8.79236e-08 8.89981 8.79236e-08 6.00052C-0.00052486 3.10071 2.34966 0.75 5.24947 0.75ZM5.24738 5.08082C5.11873 5.08099 4.99462 5.1284 4.89863 5.21405C4.80263 5.29969 4.74142 5.4176 4.72663 5.5454L4.72295 5.60629L4.72505 8.49455L4.7282 8.55544C4.74287 8.68348 4.80413 8.80165 4.90031 8.88744C4.99649 8.97323 5.12086 9.02064 5.24974 9.02064C5.37861 9.02064 5.50299 8.97323 5.59917 8.88744C5.69534 8.80165 5.7566 8.68348 5.77127 8.55544L5.77442 8.49402L5.77232 5.60576L5.76865 5.54434C5.75347 5.41666 5.69196 5.29898 5.59578 5.21363C5.4996 5.12829 5.37596 5.08069 5.24738 5.08082ZM5.25 3.11279C5.07576 3.11279 4.90866 3.182 4.78545 3.30521C4.66224 3.42842 4.59303 3.59552 4.59303 3.76976C4.59303 3.944 4.66224 4.1111 4.78545 4.23431C4.90866 4.35752 5.07576 4.42673 5.25 4.42673C5.33624 4.4267 5.42163 4.40968 5.50129 4.37664C5.58095 4.34361 5.65333 4.29521 5.71429 4.2342C5.77524 4.1732 5.82359 4.10078 5.85656 4.02109C5.88953 3.9414 5.90648 3.856 5.90645 3.76976C5.90641 3.68352 5.88939 3.59813 5.85636 3.51847C5.82332 3.43881 5.77492 3.36643 5.71391 3.30547C5.65291 3.24452 5.5805 3.19617 5.50081 3.1632C5.42112 3.13023 5.33624 3.11275 5.25 3.11279Z" fill="#555555"/>
</svg>
