<?xml version="1.0"?>
<svg width="96px" height="96px" viewBox="0 0 48 48" xmlns="http://www.w3.org/2000/svg">
  <g>
    <path fill="#ffffff" d="M43.6 20.5H42V20.5H24V27.5H35.1C33.7 31.4 29.3 34 24 34C17.4 34 12 28.6 12 22C12 15.4 17.4 10 24 10C27.1 10 29.9 11.1 32 13L37 8C33.7 5.1 29.1 3 24 3C12.9 3 4 11.9 4 23C4 34.1 12.9 43 24 43C34.6 43 43 34.6 43 24C43 22.7 42.9 21.6 42.6 20.5Z"/>
    <path fill="#ffffff" d="M6.3 14.7L12.1 19.1C13.7 15.6 18.4 12 24 12C27.1 12 29.9 13.1 32 15L37 10C33.7 7.1 29.1 5 24 5C16.3 5 9.7 10.6 6.3 14.7Z"/>
    <path fill="#ffffff" d="M24 43C29.2 43 33.7 41.1 37 38.1L31.6 33.7C29.7 35.1 27.1 36 24 36C18.4 36 13.7 32.4 12.1 28.9L6.3 33.3C9.7 37.4 16.3 43 24 43Z"/>
    <path fill="#ffffff" d="M43.6 20.5H42V20.5H24V27.5H35.1C34.4 29.4 33.1 31.1 31.6 32.3L37 36.7C39.9 34.1 42 30.4 42 24C42 22.7 41.9 21.6 41.6 20.5Z"/>
  </g>
</svg>
