<svg width="32" height="32" viewBox="0 0 32 32" fill="none" xmlns="http://www.w3.org/2000/svg">
<rect width="32" height="32" rx="16" fill="white"/>
<path fill-rule="evenodd" clip-rule="evenodd" d="M0 16C0 7.168 7.168 0 16 0C24.832 0 32 7.168 32 16C32 24.832 24.832 32 16 32C7.168 32 0 24.832 0 16ZM5.91915 17.1201L11.6631 22.8641C12.2871 23.4881 13.3111 23.4881 13.9191 22.8641L26.0632 10.7201C26.6872 10.0961 26.6872 9.08809 26.0632 8.46409C25.4391 7.84009 24.4312 7.84009 23.8071 8.46409L12.7991 19.4721L8.17515 14.8641C7.55115 14.2401 6.54315 14.2401 5.91915 14.8641C5.61954 15.163 5.45117 15.5689 5.45117 15.9921C5.45117 16.4153 5.61954 16.8212 5.91915 17.1201Z" fill="#06893A"/>
</svg>
