<svg width="24" height="24" viewBox="0 0 24 24" fill="none" xmlns="http://www.w3.org/2000/svg">
<mask id="mask0_9249_39108" style="mask-type:alpha" maskUnits="userSpaceOnUse" x="0" y="0" width="24" height="24">
<rect width="24" height="24" fill="#fff"/>
</mask>
<g mask="url(#mask0_9249_39108)">
<path d="M12 17.5C12.2567 17.5 12.4721 17.4129 12.6462 17.2388C12.8204 17.0646 12.9075 16.8492 12.9075 16.5925C12.9075 16.3358 12.8204 16.1204 12.6462 15.9462C12.4721 15.7721 12.2567 15.685 12 15.685C11.7433 15.685 11.5279 15.7721 11.3538 15.9462C11.1796 16.1204 11.0925 16.3358 11.0925 16.5925C11.0925 16.8492 11.1796 17.0646 11.3538 17.2388C11.5279 17.4129 11.7433 17.5 12 17.5ZM11.2575 13.2925H12.9075V6.335H11.2575V13.2925ZM12 23C10.4967 23 9.07583 22.7113 7.7375 22.1338C6.39917 21.5562 5.23042 20.7679 4.23125 19.7688C3.23208 18.7696 2.44375 17.6008 1.86625 16.2625C1.28875 14.9242 1 13.4942 1 11.9725C1 10.4692 1.28875 9.04833 1.86625 7.71C2.44375 6.37167 3.23208 5.2075 4.23125 4.2175C5.23042 3.2275 6.39917 2.44375 7.7375 1.86625C9.07583 1.28875 10.5058 1 12.0275 1C13.5308 1 14.9517 1.28875 16.29 1.86625C17.6283 2.44375 18.7925 3.2275 19.7825 4.2175C20.7725 5.2075 21.5562 6.37167 22.1338 7.71C22.7113 9.04833 23 10.4783 23 12C23 13.5033 22.7113 14.9242 22.1338 16.2625C21.5562 17.6008 20.7725 18.7696 19.7825 19.7688C18.7925 20.7679 17.6283 21.5562 16.29 22.1338C14.9517 22.7113 13.5217 23 12 23Z" fill="#fff"/>
</g>
</svg>
