<svg width="182" height="40" viewBox="0 0 182 40" fill="none" xmlns="http://www.w3.org/2000/svg">
<g clip-path="url(#clip0_8711_26560)">
<path d="M34.0281 39.9874C29.6298 39.5161 29.2018 31.3872 28.7148 22.6142C28.6598 21.6835 28.6127 20.7528 28.5538 19.8182C27.953 10.0006 26.7552 0.289062 19.4588 0.289062C5.33724 0.289062 0.291016 22.6142 0.291016 22.6142H23.3387L22.9892 19.8182H4.44974C7.65026 5.86544 21.3517 -4.1524 24.2537 19.8182L24.5993 22.6142C25.5732 32.0744 28.3182 39.7282 34.1106 40.007C34.1459 40.007 34.0556 39.9952 34.0242 39.9874" fill="white"/>
<path d="M35.1709 19.8211L35.7247 22.6171H51.095C50.4039 27.2824 37.7 40.544 34.468 22.6171L33.9143 19.8211C33.4077 17.8379 31.9312 2.29475 22.8165 0.476536C22.628 0.441193 22.4317 0.40585 22.2314 0.382288C22.2 0.378361 22.094 0.370507 22.1372 0.378361L22.1843 0.386215C28.4518 1.37975 29.5514 10.5494 30.1169 19.8211C30.1758 20.7557 30.2268 21.6864 30.2779 22.6171C30.7805 31.6571 31.2243 40.0099 36.0035 40.0099C44.4309 40.0099 52.8661 28.6922 54.4173 19.8211H35.167H35.1709Z" fill="white"/>
</g>
<defs>
<clipPath id="clip0_8711_26560">
<rect width="181.224" height="40" fill="white"/>
</clipPath>
</defs>
</svg>
